<?xml version="1.0" encoding="utf-8"?>
<!-- Generator: Adobe Illustrator 25.3.1, SVG Export Plug-In . SVG Version: 6.00 Build 0)  -->
<svg version="1.1" id="Calque_1" xmlns="http://www.w3.org/2000/svg" xmlns:xlink="http://www.w3.org/1999/xlink" x="0px" y="0px"
	 viewBox="0 0 1280 640" style="enable-background:new 0 0 1280 640;" xml:space="preserve">
<style type="text/css">
	.st0{fill:#474343;}
</style>
<g>
	<g>
		<path class="st0" d="M633,329.7c-14-18.5-32.6-32.6-53.4-43.3c-20.8-10.1-43.3-16.9-66.3-19.7c-23-2.8-46.6-2.8-69.7,2.2
			c-11.2,2.8-22.5,6.7-32,12.9c-10.1,5.6-18.5,14-25.3,23c-6.7,9-12.9,18.5-16.3,29.2c-3.9,10.1-5.1,21.4-3.9,32.6
			c1.1,10.7,5.6,21.4,12.4,29.2c3.4,3.9,7.9,7.3,12.4,9c4.5,2.2,10.1,2.8,15.2,2.2c5.1-0.6,10.1-1.7,14.6-4.5
			c4.5-2.8,7.3-6.7,9-11.8c3.4-9.6,1.1-21.4-3.9-30.9c-5.6-9.6-14-17.4-23.6-23c-9.6-5.6-20.8-9-32-10.7c-23-3.4-46.1,1.7-67.4,10.1
			c-21.9,8.4-42.7,19.7-64.6,29.8c-42.7,20.8-87.7,38.8-133.2,53.4c-11.2,3.4-23,7.3-35.4,8.4c-12.4,1.7-25.3,0.6-37.1-5.1
			s-20.8-16.3-25.8-27.5c-5.6-11.8-7.3-24.7-6.2-37.6c0.6-6.2,2.2-12.9,5.1-19.1c2.8-6.2,7.3-11.8,11.8-16.3c10.1-9,23-14,36-14.6
			c13.5-0.6,26.4,3.4,37.6,10.1s19.7,16.3,25.8,27c1.1,1.7,0.6,3.9-1.1,5.1s-3.4,0.6-4.5-0.6l0,0c-7.3-9-16.3-16.3-25.8-21.4
			c-9.6-5.1-20.2-7.9-30.9-7.3c-10.7,0.6-21.4,4.5-29.2,11.2s-12.9,16.9-14,27.5c-1.7,10.7,0,22.5,3.9,32.6s11.2,19.1,20.8,24.7
			c9.6,5.1,21.4,6.2,32.6,5.1c11.2-1.1,23-4.5,34.3-7.9c45.5-14,88.2-35.4,130.9-56.2c21.4-10.7,42.7-21.9,65.2-30.3
			c11.2-3.9,23-7.3,35.4-9c12.4-1.7,24.7-1.7,37.1,0c12.4,1.7,24.2,5.6,35.4,12.4c10.7,6.2,20.2,15.2,27,26.4
			c6.2,11.2,9.6,24.7,5.1,38.2c-2.2,6.2-6.7,12.4-12.4,16.3c-5.6,3.9-12.4,6.2-19.1,6.7c-6.7,0.6-13.5,0-19.7-2.8
			c-6.7-2.2-11.8-6.7-16.9-11.2c-9-9.6-14.6-22.5-16.3-35.4c-1.7-12.9,0-25.8,4.5-38.2c3.9-12.4,10.7-23,19.7-32
			c8.4-9,19.1-16.3,29.8-21.9c10.7-6.2,22.5-10.7,34.3-13.5c23.6-6.2,48.3-7.9,72.5-5.6c24.2,2.8,48.3,9,70.2,20.8
			c21.9,11.2,41,28.1,53.9,49.4c1.1,1.7,0.6,3.9-1.1,5.1C635.8,331.9,634.1,331.4,633,329.7L633,329.7z"/>
	</g>
	<g>
		<path class="st0" d="M283,319c-4.5-7.3-11.2-12.9-19.1-17.4c-7.3-4.5-15.7-7.3-24.2-9.6c-8.4-2.2-17.4-2.8-25.8-2.2
			s-17.4,2.2-25.3,5.1l1.7-6.2c11.8,12.4,27,20.8,43.3,25.3c8.4,2.2,16.3,3.4,24.7,3.4c3.9,0,9,0,12.9,0c4.5,0,8.4,0,11.8-1.7l0,0
			c1.1-0.6,2.2,0,2.8,1.1s0,1.7-0.6,2.2c-3.9,3.4-9,4.5-13.5,5.1c-4.5,0.6-8.4,1.1-13.5,1.7c-9.6,0.6-18.5-0.6-28.1-2.8
			c-9-2.8-17.4-6.2-25.3-11.2c-7.9-5.1-14.6-11.2-20.8-18.5l0,0c-1.1-1.7-1.1-3.9,0.6-5.1c0.6-0.6,1.1-0.6,1.1-0.6
			c9-2.2,18-3.9,27.5-3.9c9,0,18.5,1.1,27,3.4c9,2.2,17.4,6.2,25.3,10.7s15.2,10.7,20.2,18.5c0.6,1.1,0.6,2.2-0.6,2.8
			C284.1,319.6,283.5,320.1,283,319L283,319z"/>
	</g>
	<g>
		<path class="st0" d="M190.2,290.9c8.4-0.6,16.9,1.7,24.7,4.5l11.8,3.9c3.9,1.1,7.9,2.2,11.8,3.4c7.9,2.2,15.7,3.9,23.6,6.7
			c3.9,1.1,7.3,2.2,11.2,3.4c3.4,0.6,7.3,1.7,11.2,2.8l0,0c1.1,0.6,1.7,1.7,1.1,2.8c0,0.6-1.1,1.1-1.7,1.1
			c-3.9,1.1-8.4,1.7-12.9,1.7c-4.5-0.6-8.4-1.7-12.4-2.8c-7.9-2.8-15.7-5.6-23-9l-11.2-5.1c-3.9-1.7-7.3-3.4-11.2-5.1
			c-7.3-2.8-15.2-5.1-23-4.5c-1.1,0-2.2-0.6-2.2-1.7C188,292,189.1,290.9,190.2,290.9L190.2,290.9z"/>
	</g>
	<g>
		<path class="st0" d="M291.4,361.7c-8.4,0.6-16.9,4.5-24.2,9c-7.3,5.1-14,10.7-19.7,17.4s-10.1,14-13.5,22.5
			c-3.4,7.9-5.6,16.3-6.7,24.7l-4.5-3.9c16.3-5.1,30.9-14.6,42.1-27.5c5.6-6.2,10.1-13.5,14-20.8c1.7-3.4,3.9-7.9,5.6-11.8
			c2.2-3.9,3.4-7.3,3.9-11.2l0,0c0-1.1,1.1-2.2,2.2-1.7c1.1,0,1.7,0.6,1.7,1.7c1.1,5.1,0,10.1-1.1,14.6c-1.7,4.5-2.8,8.4-4.5,12.9
			c-3.4,8.4-8.4,16.9-14.6,23.6c-6.2,6.2-13.5,12.4-21.4,17.4c-7.9,4.5-16.9,8.4-25.8,10.7l0,0c-2.2,0.6-3.9-0.6-4.5-2.8
			c0-0.6,0-1.1,0-1.7c1.7-9,5.1-18,9-26.4c3.9-8.4,9.6-15.7,15.2-22.5c6.2-6.7,12.9-12.9,20.8-18c7.9-5.1,16.3-9,25.8-10.1
			c1.1,0,2.2,0.6,2.2,1.7S292.5,361.7,291.4,361.7L291.4,361.7z"/>
	</g>
	<g>
		<path class="st0" d="M225.1,432.5c3.4-7.9,9-14.6,15.2-20.2l9-8.4c2.8-2.8,5.6-6.2,7.9-9c5.1-6.2,10.7-12.4,16.3-18
			c2.8-2.8,5.6-5.6,7.9-8.4c2.2-2.8,4.5-6.2,7.9-9l0,0c1.1-0.6,2.2-0.6,2.8,0s0.6,1.1,0.6,1.7c-1.1,4.5-2.2,8.4-4.5,12.4
			c-2.2,3.9-5.1,7.3-7.9,10.1c-5.6,5.6-12.4,11.2-18.5,16.9l-9.6,7.9c-3.4,2.8-6.7,5.1-9.6,7.9c-6.2,5.1-11.8,11.2-14,18.5
			c-0.6,1.1-1.7,1.7-2.8,1.1C225.1,434.7,224.5,433.6,225.1,432.5L225.1,432.5z"/>
	</g>
	<g>
		<g>
			<path class="st0" d="M115,364.5c19.1,0,19.1-29.8,0-29.8S95.8,364.5,115,364.5L115,364.5z"/>
		</g>
	</g>
	<g>
		<path class="st0" d="M644.2,336.4c7.3,2.8,15.2,4.5,23,7.9c3.9,1.7,7.9,3.4,11.2,5.6c1.7,1.1,3.4,2.8,5.1,3.9
			c0.6,0.6,1.7,1.7,2.2,3.4c0.6,0.6,0.6,1.7,0.6,2.8s-0.6,2.8-1.1,3.4c-1.7,1.7-3.4,2.2-4.5,2.8s-2.2,0.6-3.9,0.6
			c-2.8,0-5.1,0-7.3-0.6c-4.5-1.1-8.4-3.4-11.8-6.2c-6.7-5.1-12.9-11.2-16.3-19.1l5.1-2.8c0,1.1,0.6,1.7,0.6,2.8s-0.6,2.2-1.7,2.2
			c-0.6,0-1.7,0-1.7-0.6c-0.6-0.6-1.1-1.1-1.7-2.2c-1.1-1.1-0.6-2.8,0.6-3.9c1.1-0.6,2.2-0.6,3.4,0l1.1,1.1
			c6.2,5.1,11.2,10.1,17.4,14.6c2.8,2.2,5.6,3.9,9,5.6c1.7,0.6,2.8,1.1,4.5,1.1c1.1,0,3.4-0.6,2.8,0c-0.6,0.6,0,1.7,0,1.1
			s-0.6-1.1-1.1-1.7c-1.1-1.7-2.2-2.8-3.9-3.9c-2.8-2.2-6.2-4.5-9.6-6.2c-6.7-3.4-14.6-5.1-22.5-7.9c-1.1-0.6-1.7-1.7-1.1-2.8
			C642,336.4,643.1,335.9,644.2,336.4L644.2,336.4z"/>
	</g>
	<g>
		<path class="st0" d="M639.2,345.4c2.8,6.7,5.6,13.5,7.3,20.2c0.6,3.4,1.7,7.3,1.7,11.2c0,1.7,0,3.9-0.6,6.2
			c-0.6,1.1-0.6,2.2-1.1,3.4c0,0.6-0.6,1.1-0.6,1.7c-0.6,0.6-1.1,1.1-2.2,2.2c-1.7,1.1-3.4,0.6-4.5,0s-1.7-1.1-2.2-1.1
			c-1.1-0.6-1.7-1.7-2.8-2.8c-1.7-1.7-2.2-3.9-3.4-6.2c-1.1-3.9-1.1-8.4-1.1-11.8c0-7.3,1.7-14.6,5.6-21.4c0.6-1.1,2.2-1.1,2.8-0.6
			c0.6,0.6,1.1,1.1,1.1,1.7l0,0c0.6,7.3,0.6,14,0,20.8c0,3.4,0,6.7,0,9c0,1.1,0.6,2.2,1.1,3.4c0.6,0.6,0.6,1.1,1.1,1.1
			c0,0,0.6,0.6,0,0c0,0-1.1,0-1.7,0c-1.1,1.1,0,0,0-0.6c0.6-0.6,0.6-1.1,1.1-1.7c0.6-1.1,1.1-2.8,1.1-4.5c0.6-3.4,0-6.7-0.6-10.1
			c-1.1-6.7-3.4-13.5-6.7-19.1c-0.6-1.1,0-2.2,0.6-2.8C636.9,343.7,638.1,344.3,639.2,345.4C638.6,345.4,638.6,345.4,639.2,345.4z"
			/>
	</g>
	<g>
		<path class="st0" d="M625.7,345.4c-6.2,2.2-11.8,5.6-16.3,10.1c-2.2,2.2-4.5,5.1-6.2,7.3c-1.7,2.2-1.1,5.1,0,5.1
			c0.6,0,0.6,0,1.1,0c0.6,0,1.7-0.6,2.8-1.7c2.2-1.7,4.5-3.9,6.2-6.2c3.9-4.5,6.7-9.6,10.7-15.2l0,0c0.6-1.1,2.2-1.1,2.8-0.6
			c0.6,0.6,1.1,1.1,1.1,1.7c1.1,7.3-2.2,15.2-6.7,20.8c-2.2,2.8-5.1,5.6-8.4,7.3c-1.7,1.1-3.9,2.2-6.7,2.2c-2.8,0.6-6.2-0.6-7.9-3.4
			c-1.7-2.2-2.2-5.1-1.7-7.3c0.6-2.2,1.7-4.5,2.8-5.6c2.2-2.8,5.1-5.1,7.9-7.3c5.6-4.5,11.2-7.9,18-10.7c1.1-0.6,2.2,0,2.8,1.1
			C627.4,343.7,626.8,344.8,625.7,345.4L625.7,345.4z"/>
	</g>
	<g>
		<path class="st0" d="M640.9,320.7c12.9-20.8,32-37.6,53.9-49.4c21.9-11.8,46.1-18,70.2-20.8c24.2-2.2,48.9-0.6,72.5,5.6
			c11.8,2.8,23,7.9,34.3,13.5c10.7,5.6,21.4,12.9,29.8,21.9c9,9,15.7,20.2,19.7,32c4.5,11.8,5.6,25.3,4.5,38.2
			c-1.7,12.9-7.3,25.3-16.3,35.4c-4.5,5.1-10.1,9-16.9,11.2c-6.2,2.2-13.5,3.4-19.7,2.8c-6.7-0.6-13.5-2.8-19.1-6.7
			c-5.6-3.9-10.1-9.6-12.4-16.3c-4.5-13.5-1.1-27,5.1-38.2s15.7-20.2,27-26.4c10.7-6.2,23-10.1,35.4-12.4c12.4-1.7,24.7-1.7,37.1,0
			c12.4,1.7,24.2,5.1,35.4,9c23,8.4,44.4,19.7,65.2,30.3c42.7,21.4,85.4,42.1,130.9,56.2c11.2,3.9,22.5,6.7,34.3,7.9
			c11.2,1.1,23,0,32.6-5.1c9.6-5.1,16.9-14.6,20.8-24.7c3.9-10.1,5.6-21.9,3.9-32.6c-1.7-10.7-6.2-20.8-14-27.5
			c-7.9-6.7-18.5-10.7-29.2-11.2c-10.7-0.6-21.4,2.2-30.9,7.3c-9.6,5.1-18.5,12.4-25.8,21.4l0,0c-1.1,1.7-3.4,1.7-5.1,0.6
			c-1.1-1.1-1.7-2.8-0.6-4.5c6.2-10.7,15.2-20.2,25.8-27s24.2-10.7,37.6-10.1c12.9,1.1,26.4,5.6,36,14.6c5.1,4.5,9,10.1,11.8,16.3
			c2.8,6.2,4.5,12.4,5.1,19.1c1.1,12.9-1.1,25.8-6.2,37.6c-5.1,11.8-14,21.9-25.8,27.5c-11.8,5.6-24.7,6.7-37.1,5.1
			c-12.4-1.7-24.2-5.1-35.4-8.4c-45.5-14.6-90.5-32.6-133.2-53.4c-21.4-10.1-42.7-21.9-64.6-29.8c-21.9-8.4-44.9-13.5-67.4-10.1
			c-11.2,1.7-22.5,5.1-32,10.7c-9.6,5.6-18.5,13.5-23.6,23c-5.6,9.6-7.9,21.4-3.9,30.9c1.7,4.5,5.1,9,9,11.8
			c3.9,2.8,9.6,4.5,14.6,4.5c5.1,0,10.7-0.6,15.2-2.2c4.5-1.7,9-5.1,12.4-9c7.3-7.9,11.2-18.5,12.4-29.2c1.1-10.7,0-21.9-3.9-32.6
			s-9.6-20.2-16.3-29.2s-15.2-16.9-25.3-23c-10.1-5.6-20.8-9.6-32-12.9c-22.5-5.6-46.6-5.6-69.7-2.2c-23,3.4-45.5,9.6-66.3,19.7
			c-20.8,10.7-39.3,24.7-53.4,43.3l0,0c-1.1,1.7-3.4,1.7-5.1,0.6C640.3,324.1,640.3,322.4,640.9,320.7z"/>
	</g>
	<g>
		<path class="st0" d="M993.2,311.7c5.1-7.9,12.4-14,20.2-18.5c7.9-4.5,16.3-8.4,25.3-10.7c9-2.2,18-3.9,27-3.4
			c9,0,18.5,1.1,27.5,3.9c1.7,0.6,3.4,2.8,2.8,4.5c0,0.6-0.6,1.1-0.6,1.1l0,0c-6.2,7.3-12.9,13.5-20.8,18.5
			c-7.9,5.1-16.3,9-25.3,11.2c-9,2.2-18.5,3.4-28.1,2.8c-5.1-0.6-9-1.1-13.5-1.7c-4.5-0.6-9.6-2.2-13.5-5.1
			C992.6,313.9,992.6,312.3,993.2,311.7c1.1-0.6,1.7-1.1,2.8-0.6l0,0c3.9,1.7,7.9,1.7,11.8,1.7c3.9,0,9,0,12.9,0
			c8.4,0,16.9-1.1,24.7-3.4c16.3-4.5,31.5-12.9,43.3-25.3l1.7,6.2c-7.9-2.8-16.9-5.1-25.3-5.1c-8.4-0.6-17.4,0-25.8,2.2
			c-8.4,2.2-16.9,5.1-24.2,9.6s-14.6,10.1-19.1,17.4c-0.6,1.1-1.7,1.1-2.8,0.6S992.6,312.8,993.2,311.7L993.2,311.7z"/>
	</g>
	<g>
		<path class="st0" d="M1089.2,289.8c-7.9-1.1-15.7,1.7-23,4.5c-3.9,1.7-7.3,3.4-11.2,5.1l-11.2,5.1c-7.9,3.4-15.2,6.2-23,9
			c-3.9,1.1-7.9,2.2-12.4,2.8c-4.5,0-9-0.6-12.9-1.7c-1.1,0-1.7-1.7-1.7-2.8c0-0.6,0.6-1.1,1.1-1.7l0,0c3.9-1.7,7.9-2.2,11.2-2.8
			c3.4-1.1,7.3-2.2,11.2-3.4c7.9-2.8,15.7-4.5,23.6-6.7c3.9-1.1,7.9-1.7,11.8-3.4l11.8-3.9c7.9-2.8,16.3-5.1,24.7-4.5
			c1.1,0,2.2,1.1,2.2,2.2S1090.4,289.8,1089.2,289.8L1089.2,289.8z"/>
	</g>
	<g>
		<path class="st0" d="M988.7,352.7c9.6,1.1,18,5.1,25.8,10.1c7.9,5.1,14.6,11.2,20.8,18c6.2,6.7,11.2,14.6,15.2,22.5
			c3.9,8.4,7.3,16.9,9,26.4c0.6,2.2-1.1,3.9-2.8,4.5c-0.6,0-1.1,0-1.7,0l0,0c-9-2.2-18-5.6-25.8-10.7c-7.9-5.1-15.2-10.7-21.4-18
			c-6.2-6.7-11.2-15.2-14.6-23.6c-1.7-4.5-2.8-8.4-4.5-12.9c-1.1-4.5-2.2-9.6-1.1-14.6C986.4,353.3,987.5,352.7,988.7,352.7
			c1.1,0.6,1.7,1.1,1.7,2.2l0,0c0.6,3.9,1.7,7.9,3.9,11.2c1.7,3.9,3.9,8.4,5.6,11.8c3.9,7.3,9,14.6,14,20.8
			c11.2,12.4,25.8,22.5,42.1,27.5l-4.5,3.9c-1.1-8.4-3.4-16.9-6.7-24.7s-7.9-15.7-13.5-22.5c-5.6-6.7-12.4-12.9-19.7-17.4
			c-7.3-5.1-15.2-8.4-24.2-9c-1.1,0-2.2-1.1-1.7-2.2C986.4,353.3,987.5,352.7,988.7,352.7L988.7,352.7z"/>
	</g>
	<g>
		<path class="st0" d="M1050.5,429.1c-2.8-7.3-8.4-13.5-14-18.5c-2.8-2.8-6.2-5.1-9.6-7.9l-9.6-7.9c-6.2-5.6-12.4-10.7-18.5-16.9
			c-2.8-2.8-5.6-6.2-7.9-10.1c-2.2-3.9-3.4-7.9-4.5-12.4c0-1.1,0.6-2.2,1.7-2.8c0.6,0,1.7,0,1.7,0.6l0,0c3.4,2.8,5.6,6.2,7.9,9
			c2.2,2.8,5.1,5.6,7.9,8.4c5.6,5.6,11.2,11.8,16.3,18c2.8,2.8,5.1,6.2,7.9,9l9,8.4c5.6,5.6,11.2,12.4,15.2,20.2
			c0.6,1.1,0,2.2-1.1,2.8C1052.7,430.8,1051,430.3,1050.5,429.1C1051,429.1,1050.5,429.1,1050.5,429.1z"/>
	</g>
	<g>
		<g>
			<path class="st0" d="M1164.5,359.5c19.1,0,19.1-29.8,0-29.8C1145.4,329.7,1145.4,359.5,1164.5,359.5L1164.5,359.5z"/>
		</g>
	</g>
</g>
</svg>
